<?xml version="1.0" encoding="utf-8"?>
<!-- Generator: Adobe Illustrator 21.1.0, SVG Export Plug-In . SVG Version: 6.00 Build 0)  -->
<svg version="1.1" id="Layer_1" xmlns="http://www.w3.org/2000/svg" xmlns:xlink="http://www.w3.org/1999/xlink" x="0px" y="0px"
	 viewBox="0 0 195 71.1" style="enable-background:new 0 0 195 71.1;" xml:space="preserve">
<style type="text/css">
	.st0{fill:#FFFFFF;}
</style>
<g>
	<path class="st0" d="M84.6,56.9c-1.4,2.4-6.4,8.1-7.9,8.6c-8.4,3.1-15.8-4.8-15.3-11.6c0.2-2.8,1.2-5.5,2.3-8.1
		c1.4-3.6,7.5-21.8,11.6-21.6c3.2,0.2,11,3,10.7,7.2c-0.2,2.1-1.7,4.1-2.7,5.9c-1.3,2.3-2.5,4.6-3.6,6.9C77.4,49,75.4,54,73.8,59
		c-0.4,1.1-1,4.3,0.7,4.1c2.4-0.4,8.7-8.5,12.1-15C87.4,46.6,86.3,54,84.6,56.9z"/>
	<path class="st0" d="M85.8,23.6c-1.4-0.2-2.7-0.9-3.8-1.7c-2.2-1.7-3.9-4.1-4-6.9c-0.4-9.2,12.2-5.8,13.7,0.6
		c0.3,1.3,0,2.8-0.4,4.1c-0.3,0.9-0.6,1.8-1.2,2.5c-1,1.1-2.6,1.6-4,1.5C86,23.7,85.9,23.6,85.8,23.6z"/>
	<path class="st0" d="M191.8,24.6c-6.7-4.4-10.2-3.1-12.6,4.6c-0.6,2.1-2.1,3.4-3.6,5.1c0.3-4.7-7.3-11-11.3-9.7
		c-0.8,0.3-1.2,0.9-1.5,1.7c-3.7,9.5-9.6,18.1-12.6,28c-0.7,2.4-9.7,12.8-12.2,8.4c-0.4-0.8-0.3-1.7-0.2-2.6
		c0.2-1.9,0.4-3.8,1.2-5.5c1-2.3,2.9-4.2,4.6-6.1c6.1-6.5,11.1-13.8,15.3-21.6c1.4-2.5,2.8-5.1,3.7-7.8c1.5-4.5-0.3-7.8-5.1-10.6
		c-3.9-2.3-7.2-1.8-10.1,1.8c-2.8,3.5-5.4,7.2-7.6,11.1C134.1,31.1,129,41,126.2,52c-1.1,4.6-5.4,6.9-7.4,4.3
		c-3.2-4.1-4.8-9.2-5.8-14.2c-0.2-1-0.3-2-0.1-2.9c0.4-1.5,1.8-2.4,3.1-3.3c2.4-1.7,4.6-3.6,6.7-5.7c1-1,2-2.2,2.2-3.6
		c0.3-1.9-1-3.6-2.2-5.1c-0.5-0.6-1-1.3-1.8-1.5c-0.8-0.3-1.8,0.1-1.9,0.9c-0.1,0.8,0.6,1.4,0.9,2.2c0.3,0.8,0,1.7-0.4,2.5
		c-1.8,3.9-4.9,6.8-8.2,9.4c-1.4-3.7-2.8-7.2-4.2-10.7c-0.8-1.9-2-3.3-4.4-2.9c-4,0.7-7.7,2.2-11,4.4c-3.2,2.1,1.5,2.8,2.3,5.4
		c1.3,4.3,2.5,8.5,3.9,12.7c0.6,1.7-0.4,2.3-1.4,3.1c-2.9,2.4-5.7,4.8-8.7,7.1c-1.6,1.3-4.9,2.7-5.8,4.5c-0.3,0.7-0.4,1.4-0.4,2.2
		c0.1,2.1,0.7,4.3,2.2,5.9c0.9,0.9,3.9,3.1,3.9,0.4c-0.1-8.6,7.3-11.5,11.9-17c1.6,4.5,3.1,8.3,5.2,11.7c4.1,6.6,10.2,7.7,16.1,2.6
		c1.9-1.6,3.4-3.5,5.1-5.4c5.7,8.3,10.6,10,17.2,6.2c6.5-3.7,6.5-3.7,13-0.3c4,2.1,5.3,1.5,6.9-2.6c3.7-9.7,9.1-18.5,15.4-27.5
		c1.5,7.1,3.3,10,6.5,10.6c1.8,0.3,3.6-0.4,4.3-2.1c-1-0.3-3.2-0.5-3.6-1.9c-0.1-0.5,0-0.9,0.1-1.4c0.6-2.4,1.9-4.4,3.6-6.2
		c0.8-0.8,5.1-3.6,5.1-4.4c0-1,0-1.9,0-2.9C193.6,25.8,192.7,25.1,191.8,24.6z M160.6,16.9c-4.2,9.6-8.7,17.6-15.2,25
		C147.9,32,153.2,23.5,160.6,16.9z"/>
	<path class="st0" d="M60.2,1.4c-4.1-0.4-7.2,1.3-10,3.8c-3.4,3-6.5,6.2-9.8,9.4C40.7,8,37.5,4.1,31.1,2.9c-2.6-0.5-4,0-4,3
		c0,2.5-1.1,4.7-2.3,6.8c-4.5,7.9-9,15.7-13.5,23.5c-3.4,6-10,13.5-9.5,20.7C2.3,65,9.7,70,17.3,69.7c0.3,0,0.5,0,0.7-0.2
		c0.2-0.2,0.3-0.4,0.3-0.7c1.7-7.2,3.3-14.3,6.7-21c0.9-1.8,1.4-2.6,3.8-1.4c10.6,5.3,20.1,3.4,28.3-5.2
		c7.2-7.5,11.1-16.8,13.1-26.8C71.9,6.2,68.7,2.3,60.2,1.4z M56.3,12.2c-1.5,9.4-5.3,17.8-12,24.6c-3.5,3.6-7.8,5.6-11.9,6
		c-3.2,0.1-4.4-0.7-3-3.1C35.4,28.7,41.9,18,50.8,9.1c1.3-1.3,2.8-3.5,4.7-2.3C57.3,7.8,56.6,10.3,56.3,12.2z"/>
</g>
</svg>
